<svg xmlns="http://www.w3.org/2000/svg" viewBox="0 0 100 100">
  <rect width="100" height="100" fill="white"/>
  <!-- Letter F - left side -->
  <rect x="15" y="10" width="8" height="75" fill="black"/>
  <rect x="15" y="10" width="30" height="8" fill="black"/>
  <rect x="15" y="40" width="30" height="8" fill="black"/>
  
  <!-- Letter B - right side, integrated with F's middle bar -->
  <rect x="45" y="10" width="8" height="75" fill="black"/>
  <!-- Top bowl of B -->
  <path d="M 53 10 L 53 18 L 70 18 Q 80 18 80 28 Q 80 38 70 38 L 53 38 Z" fill="black"/>
  <path d="M 53 20 L 70 20 Q 75 20 75 28 Q 75 36 70 36 L 53 36 Z" fill="white"/>
  <!-- Bottom bowl of B -->
  <path d="M 53 42 L 53 50 L 70 50 Q 80 50 80 60 Q 80 70 70 70 L 53 70 Z" fill="black"/>
  <path d="M 53 52 L 70 52 Q 75 52 75 60 Q 75 68 70 68 L 53 68 Z" fill="white"/>
</svg>
